<svg width="150" height="147" viewBox="0 0 150 147" fill="none" xmlns="http://www.w3.org/2000/svg">
<path fill-rule="evenodd" clip-rule="evenodd" d="M130.153 86.0426C129.776 86.7627 129.389 87.4804 128.98 88.1911C118.131 107.084 98.4263 117.632 78.18 117.597C68.2926 117.579 58.2755 115.037 49.0979 109.711C21.1311 93.4767 11.5472 57.5206 27.6951 29.4013C41.016 6.20576 67.6868 -4.40875 92.32 1.69946C75.5537 0.567547 58.8058 7.64894 47.9696 21.3532C43.9176 21.6666 41.4195 22.771 41.4195 22.771C46.8192 22.8723 52.939 24.1252 57.5025 27.0271C57.704 24.3052 59.5087 20.807 61.1657 18.8991C65.4461 36.1012 95.9849 29.6785 97.2295 54.9471C97.8948 56.7295 103.578 60.4791 105.217 61.5261C107.25 62.8241 109.325 64.0528 111.412 65.263C114.843 67.2558 117.197 69.5922 114.734 73.1872C112.745 76.0925 109.025 81.4321 105.791 82.4689C102.568 83.5023 97.9458 82.7215 94.8214 81.8C89.066 80.1038 75.8307 76.129 71.8485 84.496C71.5715 82.7063 72.059 80.7649 73.0478 79.5001C73.0478 79.5001 64.0852 86.0016 73.1743 98.1806C69.1998 96.5541 67.2642 94.2706 67.2642 94.2706C72.8944 104.195 82.0361 105.743 82.0361 105.743C84.2814 106.335 86.899 106.58 89.8892 106.512C105.345 106.168 120.321 98.927 130.153 86.0426V86.0426Z" fill="#332330"/>
<path fill-rule="evenodd" clip-rule="evenodd" d="M92.6737 51.0597C93.2232 56.6007 87.3172 53.2976 82.4922 53.1844C85.0961 54.092 86.8293 55.1559 87.9585 56.0683C73.3473 51.2733 63.1405 55.2571 63.1405 55.2571C63.1405 55.2571 71.1078 54.4583 74.6176 56.5511C75.8336 60.3064 78.9388 61.3276 80.2829 62.1934C78.7625 62.9 76.5157 63.4959 76.5157 63.4959C80.7418 64.2874 90.1862 63.3856 94.3985 60.3926C96.0661 59.2078 96.7045 58.8054 101.173 61.9104C103.679 63.6517 106.514 65.3771 108.94 66.7854C111.166 68.0776 104.323 68.5997 103.706 68.4394C103.706 68.4394 109.625 70.978 109.471 72.6065C109.208 75.3842 107.452 77.881 104.555 78.2865C98.3089 79.1597 89.1084 75.3301 83.3077 73.4403C70.843 69.3777 61.6352 72.2764 64.257 82.3569C64.257 82.3569 60.1304 78.5179 61.0184 73.9045C61.0184 73.9045 60.9267 74.0743 60.7892 74.3843C59.5279 77.1911 53.9352 91.8272 68.8323 103.013C59.4622 100.474 49.7408 96.7055 44.8269 84.3554C44.1436 86.2891 44.1404 88.1743 44.315 89.5909C39.0535 78.5166 41.2269 69.5257 45.4441 62.7605C41.9478 64.5294 39.162 69.1927 39.1045 69.3273C39.6087 59.0429 45.1431 49.7498 55.7912 45.2816C50.817 36.7537 43.6798 35.6218 43.6798 35.6218C43.3727 37.6371 44.8208 41.0447 46.9037 44.8817C41.785 41.2248 38.3372 33.3896 38.0786 27.2756C47.352 27.6825 58.3665 32.7679 66.069 37.7159C66.069 37.7159 64.5372 34.5551 64.5609 30.7452C71.7311 36.8899 91.474 38.9536 92.6737 51.0597Z" fill="#A8A4AB"/>
<path fill-rule="evenodd" clip-rule="evenodd" d="M109.471 72.6065C109.208 75.3846 107.452 77.8809 104.555 78.2865C98.3089 79.1597 89.1085 75.33 83.3077 73.4403C70.843 69.3773 61.6353 72.2764 64.257 82.3565C64.257 82.3565 60.1304 78.5183 61.0181 73.9045C60.4204 75.0122 59.7478 77.1304 59.4439 78.3682C59.0796 79.8528 58.7667 81.8242 58.7365 83.3129C58.4991 89.1065 60.3213 96.6239 68.8323 103.014C47.2908 94.9293 51.1739 74.5566 51.1739 74.5566C51.6357 77.2892 54.5283 80.1386 54.5283 80.1386C50.5188 68.6633 62.2626 64.9124 74.002 68.3151C85.4918 71.644 95.9576 73.9939 95.9576 73.9939C91.7934 72.7533 87.5371 69.5167 87.5371 69.5167C107.321 77.5799 109.471 72.6065 109.471 72.6065Z" fill="#F2F2F2"/>
<path fill-rule="evenodd" clip-rule="evenodd" d="M78.2992 56.9899C78.2992 56.9899 78.3987 58.4347 80.2165 59.031C82.0346 59.6269 85.391 58.1534 85.391 58.1534L78.2992 56.9899Z" fill="#F2F2F2"/>
<path fill-rule="evenodd" clip-rule="evenodd" d="M74.317 7.08629C79.6943 7.08629 84.053 11.4683 84.053 16.8732C84.053 22.2793 79.6943 26.6613 74.317 26.6613C68.9409 26.6613 64.5822 22.2793 64.5822 16.8732C64.5822 11.4683 68.9409 7.08629 74.317 7.08629Z" fill="#F2F2F2"/>
<path d="M5.57313 146.877V144.95H5.22312C4.44153 144.95 3.91816 144.817 3.65668 144.554C3.39479 144.291 3.26221 143.758 3.26221 142.959V139.235C3.26221 138.575 2.99053 137.916 2.44676 137.264C2.99053 136.611 3.26221 135.952 3.26221 135.293V131.569C3.26221 130.769 3.39479 130.236 3.65668 129.973C3.91816 129.71 4.44153 129.577 5.22312 129.577H5.57313V127.65H5.22312C3.75172 127.65 2.72211 127.94 2.14081 128.525C1.55666 129.109 1.26417 130.127 1.26417 131.572V135.296C1.26417 136.071 0.842781 136.727 0 137.267C0.842781 137.81 1.26417 138.466 1.26417 139.241V142.962C1.26417 144.397 1.55666 145.408 2.14448 145.996C2.73231 146.583 3.75825 146.877 5.22312 146.877H5.57313ZM145.195 137.267C144.352 136.727 143.931 136.071 143.931 135.296V131.572C143.931 130.12 143.632 129.102 143.034 128.521C142.436 127.94 141.399 127.65 139.925 127.65H139.578V129.577H139.925C140.709 129.577 141.23 129.71 141.495 129.973C141.756 130.236 141.885 130.769 141.885 131.569L141.909 135.293C141.909 135.931 142.181 136.591 142.725 137.264C142.181 137.936 141.909 138.596 141.909 139.235V142.959C141.909 143.758 141.777 144.291 141.515 144.554C141.253 144.817 140.73 144.95 139.948 144.95H139.598V146.877H139.948C141.413 146.877 142.443 146.58 143.041 145.985C143.618 145.412 143.907 144.404 143.907 142.962V139.241C143.924 138.466 144.352 137.81 145.195 137.267ZM150 143.358C150 142.942 149.942 142.583 149.83 142.275C149.545 142.176 149.154 142.125 148.658 142.125C148.196 142.125 147.788 142.176 147.435 142.275C147.295 142.644 147.227 143.03 147.227 143.437C147.227 143.997 147.278 144.407 147.377 144.667C147.72 144.807 148.066 144.878 148.41 144.878L148.43 144.967C148.389 145.336 148.097 145.811 147.557 146.399L148.332 147C149.443 146.019 150 144.803 150 143.358ZM150 134.636C150 134.104 149.949 133.68 149.851 133.365C149.586 133.273 149.164 133.226 148.59 133.226C148.046 133.226 147.642 133.273 147.377 133.365C147.278 133.68 147.227 134.104 147.227 134.636C147.227 135.098 147.278 135.514 147.377 135.887C147.683 135.996 148.087 136.048 148.59 136.048C149.127 136.048 149.545 135.996 149.851 135.887C149.949 135.514 150 135.098 150 134.636Z" fill="#F2F2F2"/>
<path d="M20.7933 145.114V129.577H18.7953V142.367C17.7587 141.821 16.9804 141.155 16.4575 140.366C15.9916 139.652 15.6791 138.736 15.5294 137.615C15.4242 136.826 15.3699 135.542 15.3699 133.762V133.41H13.3719V133.762C13.3719 134.64 13.3719 135.334 13.3719 135.843C13.3376 137.144 13.1814 138.224 12.9028 139.084C12.6107 139.98 12.1179 140.724 11.4212 141.315C11.0169 141.65 10.5311 141.961 9.96689 142.248V129.577H7.96886V145.114C8.29479 145.114 8.66193 145.056 9.07312 144.943C10.3679 144.564 11.5843 143.854 12.7192 142.812C13.4943 142.098 14.0376 141.36 14.3505 140.601C14.6834 141.373 15.2647 142.132 16.0936 142.873C16.8242 143.519 17.616 144.048 18.4722 144.465C19.3831 144.899 20.1578 145.114 20.7933 145.114ZM38.4738 137.267C38.4738 135.822 38.1238 134.476 37.4201 133.233C36.7303 132.019 35.8027 131.063 34.634 130.359C33.4273 129.632 32.1158 129.27 30.6954 129.27C29.2819 129.27 27.9802 129.622 26.7911 130.322C25.6016 131.022 24.6536 131.992 23.9503 133.233C23.2466 134.476 22.8966 135.822 22.8966 137.267C22.8966 138.709 23.2466 140.048 23.9466 141.285C24.6466 142.518 25.571 143.481 26.7263 144.175C27.9329 144.896 29.2546 145.258 30.6954 145.258C32.1158 145.258 33.4273 144.896 34.634 144.175C35.8027 143.474 36.734 142.511 37.4303 141.278C38.1271 140.048 38.4738 138.709 38.4738 137.267ZM36.4758 137.264C36.4758 138.108 36.3293 138.897 36.0372 139.628C35.5922 140.745 34.8922 141.637 33.9405 142.303C32.9721 142.989 31.8882 143.331 30.6921 143.331C29.0474 143.331 27.671 142.743 26.5598 141.565C25.4486 140.386 24.8946 138.955 24.8946 137.264C24.8946 135.579 25.4523 134.148 26.5668 132.966C27.6779 131.787 29.0543 131.196 30.6921 131.196C32.3128 131.196 33.6823 131.787 34.8004 132.973C35.9181 134.158 36.4758 135.586 36.4758 137.264ZM47.9072 143.024H42.589V129.577H40.5909V144.95H47.1186L47.9072 143.024ZM56.7356 137.387V135.521H51.4582V131.504H56.5349L55.7977 129.577H49.4601V144.95H51.4582V137.387H56.7356ZM77.4502 144.356V142.081C77.2768 142.187 77.0357 142.323 76.7229 142.49C75.6867 143.051 74.735 143.331 73.8653 143.331C72.2275 143.331 70.8275 142.737 69.6685 141.551C68.5096 140.362 67.932 138.934 67.932 137.264C67.932 136.18 68.2004 135.166 68.7376 134.22C69.2573 133.308 69.9643 132.58 70.8581 132.033C71.782 131.476 72.7847 131.196 73.8653 131.196C75.2143 131.196 76.4071 131.593 77.4502 132.389V130.199C76.3219 129.581 75.1258 129.27 73.8653 129.27C72.438 129.27 71.1061 129.635 69.8623 130.37C68.6491 131.091 67.6974 132.05 67.0076 133.243C66.2909 134.493 65.9339 135.832 65.9339 137.267C65.9339 138.702 66.2909 140.045 67.0076 141.295C67.7044 142.508 68.6695 143.471 69.9096 144.185C71.1469 144.899 72.4653 145.258 73.8653 145.258C75.0989 145.258 76.2949 144.957 77.4502 144.356ZM94.5971 137.267C94.5971 135.822 94.2471 134.476 93.5434 133.233C92.8536 132.019 91.926 131.063 90.7572 130.359C89.5506 129.632 88.2391 129.27 86.8187 129.27C85.4052 129.27 84.1035 129.622 82.9144 130.322C81.7249 131.022 80.7769 131.992 80.0736 133.233C79.3699 134.476 79.0199 135.822 79.0199 137.267C79.0199 138.709 79.3699 140.048 80.0699 141.285C80.7699 142.518 81.6943 143.481 82.8495 144.175C84.0562 144.896 85.3779 145.258 86.8187 145.258C88.2391 145.258 89.5506 144.896 90.7572 144.175C91.926 143.474 92.8573 142.511 93.5536 141.278C94.2503 140.048 94.5971 138.709 94.5971 137.267ZM92.5991 137.264C92.5991 138.108 92.4526 138.897 92.1605 139.628C91.7155 140.745 91.0155 141.637 90.0638 142.303C89.0953 142.989 88.0115 143.331 86.8154 143.331C85.1707 143.331 83.7943 142.743 82.6831 141.565C81.5719 140.386 81.0179 138.955 81.0179 137.264C81.0179 135.579 81.5756 134.148 82.69 132.966C83.8012 131.787 85.1776 131.196 86.8154 131.196C88.4361 131.196 89.8055 131.787 90.9237 132.973C92.0414 134.158 92.5991 135.586 92.5991 137.264ZM106.745 137.264C106.745 134.756 105.971 132.819 104.418 131.459C102.984 130.206 101.081 129.577 98.7123 129.577H96.7142V144.95H98.7123C99.4155 144.95 100.112 144.879 100.802 144.739C102.98 144.301 104.584 143.252 105.621 141.599C106.372 140.396 106.745 138.951 106.745 137.264ZM104.666 137.264C104.666 139.269 104.098 140.752 102.963 141.722C101.947 142.59 100.53 143.024 98.7123 143.024V131.545C100.605 131.545 102.042 131.972 103.024 132.826C104.119 133.783 104.666 135.262 104.666 137.264ZM110.82 144.95V129.577H108.822V144.95H110.82ZM123.501 144.95V129.577H121.503V135.313C121.17 134.636 120.746 133.987 120.229 133.359C118.411 131.138 116.158 129.816 113.47 129.392V144.95H115.468V132.139C115.873 132.293 116.294 132.522 116.733 132.829C117.657 133.478 118.537 134.37 119.373 135.511C120.793 137.448 121.503 139.413 121.503 141.408V144.95H123.501ZM137.345 144.404V135.525H135.347V143.153C135.255 143.184 135.12 143.218 134.94 143.252C134.46 143.345 133.991 143.392 133.526 143.392C131.847 143.392 130.481 142.815 129.428 141.657C128.371 140.499 127.844 139.04 127.844 137.284C127.844 135.579 128.371 134.141 129.421 132.962C130.498 131.757 131.874 131.155 133.543 131.155C135.239 131.155 136.506 131.541 137.345 132.317V130.147C136.238 129.536 135.055 129.229 133.801 129.229C133.071 129.229 132.364 129.324 131.681 129.519C130.315 129.905 129.142 130.595 128.167 131.582C126.621 133.151 125.846 135.047 125.846 137.267C125.846 138.001 125.935 138.719 126.115 139.419C126.468 140.789 127.11 141.964 128.048 142.945C129.519 144.486 131.354 145.258 133.553 145.258C133.859 145.258 134.178 145.237 134.518 145.196C135.599 145.07 136.543 144.807 137.345 144.404Z" fill="#F2F2F2"/>
</svg>
